# xmcd
#
# Track frame offsets: 
#        150
#        15249
#        32257
#        45659
#        67681
#        86269
#        100821
#        123921
#        141759
#        160523
#        174106
#        193158
#
# Disc length: 2898 seconds
#
# Revision: 0
# Processed by: cddbd v1.5.2PL0 Copyright (c) Steve Scherf et al.
# Submitted via: ExactAudioCopy v1.2
#
DISCID=7c0b500c
DTITLE=Billy Jones - Billy Jones on Black and Tan, Vol. 2
DYEAR=2018
DGENRE=Blues
TTITLE0=I Like It Like That
TTITLE1=Revolution Bluez
TTITLE2=Da Love Doctor
TTITLE3=Never Let You Go
TTITLE4=Da Cemetery Bluez
TTITLE5=Breakin Away
TTITLE6=Crystal
TTITLE7=Right Now
TTITLE8=Come Back Tonight
TTITLE9=Ain't No Secret
TTITLE10=Pull My 44
TTITLE11=My Hometown
EXTD=
EXTT0=
EXTT1=
EXTT2=
EXTT3=
EXTT4=
EXTT5=
EXTT6=
EXTT7=
EXTT8=
EXTT9=
EXTT10=
EXTT11=
PLAYORDER=
